<?xml version="1.0" standalone="no"?>
<!DOCTYPE svg PUBLIC "-//W3C//DTD SVG 20010904//EN"
 "http://www.w3.org/TR/2001/REC-SVG-20010904/DTD/svg10.dtd">
<svg version="1.0" xmlns="http://www.w3.org/2000/svg"
 width="416.000000pt" height="416.000000pt" viewBox="0 0 416.000000 416.000000"
 preserveAspectRatio="xMidYMid meet">

<g transform="translate(0.000000,416.000000) scale(0.100000,-0.100000)"
fill="#000000" stroke="none">
<path d="M1145 3293 c-33 -9 -65 -35 -81 -64 -11 -21 -14 -70 -14 -209 l0
-180 1030 0 1030 0 0 180 c0 197 -5 221 -57 256 -27 18 -62 19 -958 20 -511 1
-939 0 -950 -3z m212 -154 c46 -44 37 -126 -18 -154 -95 -50 -193 57 -128 139
40 51 101 56 146 15z m368 17 c40 -17 55 -42 55 -91 0 -51 -44 -95 -95 -95
-101 0 -133 146 -42 185 40 18 41 18 82 1z m428 -26 c15 -17 27 -42 27 -56 0
-55 -47 -104 -100 -104 -80 0 -127 93 -79 154 43 54 105 57 152 6z m362 26
c40 -17 55 -42 55 -91 0 -51 -44 -95 -95 -95 -101 0 -133 146 -42 185 40 18
41 18 82 1z m428 -26 c74 -82 -22 -197 -122 -145 -71 36 -59 148 19 178 29 12
75 -3 103 -33z"/>
<path d="M1050 1858 c0 -868 1 -894 20 -925 10 -18 31 -40 47 -50 26 -17 78
-18 963 -18 885 0 937 1 963 18 16 10 37 32 47 50 19 31 20 57 20 925 l0 892
-1030 0 -1030 0 0 -892z m1749 753 c7 -5 14 -21 14 -36 0 -15 -7 -31 -14 -36
-8 -5 -331 -9 -719 -9 -388 0 -711 4 -719 9 -7 5 -13 21 -13 36 0 15 6 31 13
36 8 5 331 9 719 9 388 0 711 -4 719 -9z m42 -260 l29 -29 0 -562 0 -562 -29
-29 -29 -29 -732 0 -732 0 -29 29 -29 29 0 562 0 562 29 29 29 29 732 0 732 0
29 -29z"/>
<path d="M1644 2130 c-110 -93 -201 -176 -203 -182 -2 -8 3 -7 15 3 23 19 375
319 388 330 5 5 7 11 4 14 -3 3 -95 -71 -204 -165z"/>
<path d="M1747 2016 c-129 -112 -158 -140 -140 -135 16 5 272 222 272 232 2
16 -19 1 -132 -97z"/>
<path d="M2506 1454 c-113 -97 -204 -179 -201 -182 3 -3 13 2 22 10 116 98
380 323 387 329 5 5 7 11 4 14 -3 3 -98 -74 -212 -171z"/>
<path d="M2576 1364 c-75 -64 -134 -119 -131 -122 3 -3 13 1 22 10 22 17 234
198 247 210 5 4 7 10 4 13 -3 3 -67 -47 -142 -111z"/>
</g>
</svg>
